<?xml version="1.0" encoding="utf-8"?>
<!-- Generator: Adobe Illustrator 26.0.2, SVG Export Plug-In . SVG Version: 6.00 Build 0)  -->
<svg version="1.1" id="Layer_1" xmlns="http://www.w3.org/2000/svg" xmlns:xlink="http://www.w3.org/1999/xlink" x="0px" y="0px"
	 viewBox="0 0 124 124" style="enable-background:new 0 0 124 124;" xml:space="preserve">
<style type="text/css">
	.st0{clip-path:url(#SVGID_00000169543742057832580840000009660602499440268478_);}
	.st1{fill:url(#SVGID_00000039832278289872071230000008187001330949698484_);}
	.st2{fill:#828282;}
</style>
<g>
	<defs>
		<rect id="SVGID_1_" width="124" height="124"/>
	</defs>
	<clipPath id="SVGID_00000168823630237631412830000015737016825982362775_">
		<use xlink:href="#SVGID_1_"  style="overflow:visible;"/>
	</clipPath>
	<g style="clip-path:url(#SVGID_00000168823630237631412830000015737016825982362775_);">
		
			<linearGradient id="SVGID_00000093163890519841483440000014077118582348012705_" gradientUnits="userSpaceOnUse" x1="0.4844" y1="61.464" x2="123.499" y2="61.464">
			<stop  offset="0" style="stop-color:#48B760"/>
			<stop  offset="0.557" style="stop-color:#00A300"/>
		</linearGradient>
		<path style="fill:url(#SVGID_00000093163890519841483440000014077118582348012705_);" d="M114.6,25.3c8.3-8.3,8.8-20.9,8.8-21.4
			l0.1-3.9l-3.9,0.1c-0.5,0-13.1,0.5-21.4,8.8c-6.8,6.8-8.3,16.4-8.7,20l-4.6,4.6c0.2-1.2,0.3-2.4,0.3-3.6c0-11.7-8.5-21-8.9-21.4
			l-2.7-2.8L71,8.5c-0.4,0.4-8.9,9.6-8.9,21.4c0,8.6,4.6,15.8,7.2,19.2l-5,5c0.2-1.1,0.2-2.3,0.2-3.4c0-11.7-8.5-21-8.9-21.4
			l-2.7-2.8l-2.7,2.8c-0.4,0.4-8.9,9.6-8.9,21.4c0,8.5,4.5,15.7,7.1,19.2l-5.2,5.2c0.2-1.1,0.2-2.2,0.2-3.4c0-11.7-8.5-21-8.9-21.4
			L32,47.5l-2.7,2.8c-0.4,0.4-8.9,9.6-8.9,21.4c0,8.5,4.5,15.7,7.1,19.2l-27,27l5.1,5.1l27.6-27.5c2.8,2.1,8,5.5,14.5,6.7
			c-0.6-2.7-0.9-5.5-0.9-8.3c0-5,1-9.7,2.7-14.1c-0.2,0-0.4,0.1-0.6,0.1l1-1c3.9-8.9,11-16.1,20-19.9c0,0,0,0,0,0l5-5
			c1,0.7,2.2,1.6,3.7,2.4c2-0.3,4.1-0.5,6.2-0.5c6,0,11.7,1.4,16.7,3.9c7.9-2.3,13.4-7.5,13.7-7.7l2.8-2.7l-2.8-2.7
			c-0.4-0.4-9.6-8.9-21.4-8.9c-1,0-2,0.1-3,0.2l3.9-3.9C98.5,33.6,107.9,31.9,114.6,25.3z"/>
		<path class="st2" d="M85.2,87.9c-3.2,0-5.9,2.6-5.9,5.9s2.6,5.9,5.9,5.9c3.2,0,5.9-2.6,5.9-5.9S88.4,87.9,85.2,87.9z"/>
		<path class="st2" d="M84.8,63.5c-16.7,0-30.3,13.6-30.3,30.3c0,16.7,13.6,30.3,30.3,30.3c16.7,0,30.3-13.6,30.3-30.3
			C115.1,77,101.5,63.5,84.8,63.5z M99.5,84.6l-2.8,2.8c0.5,0.9,0.9,1.8,1.1,2.7h4v7.3h-4c-0.3,1-0.7,1.9-1.1,2.7l2.8,2.8l-5.1,5.1
			l-2.8-2.8c-0.9,0.5-1.8,0.9-2.7,1.1v4h-7.3v-4c-1-0.3-1.9-0.7-2.7-1.1l-2.8,2.8l-5.1-5.1l2.8-2.8c-0.5-0.9-0.9-1.8-1.1-2.7h-4
			v-7.3h4c0.3-1,0.7-1.9,1.1-2.7l-2.8-2.8l5.1-5.1l2.8,2.8c0.9-0.5,1.8-0.9,2.7-1.1v-4h7.3v4c1,0.3,1.9,0.7,2.7,1.1l2.8-2.8
			L99.5,84.6z"/>
	</g>
</g>
</svg>
