<?xml version="1.0" encoding="utf-8"?>
<!-- Generator: Adobe Illustrator 26.0.2, SVG Export Plug-In . SVG Version: 6.00 Build 0)  -->
<svg version="1.1" id="Layer_1" xmlns="http://www.w3.org/2000/svg" xmlns:xlink="http://www.w3.org/1999/xlink" x="0px" y="0px"
	 viewBox="0 0 124 124" style="enable-background:new 0 0 124 124;" xml:space="preserve">
<style type="text/css">
	.st0{clip-path:url(#SVGID_00000016056505394590906930000006055732031522754461_);}
	.st1{fill:#828282;}
	.st2{fill:#00A300;}
</style>
<g>
	<defs>
		<rect id="SVGID_1_" width="124" height="124"/>
	</defs>
	<clipPath id="SVGID_00000063596875123465413910000012524239221020687496_">
		<use xlink:href="#SVGID_1_"  style="overflow:visible;"/>
	</clipPath>
	<g style="clip-path:url(#SVGID_00000063596875123465413910000012524239221020687496_);">
		<path class="st1" d="M73.1,94.9c4,0,7.3-3.3,7.3-7.3c0-4-3.3-7.3-7.3-7.3c-4,0-7.3,3.3-7.3,7.3C65.9,91.7,69.1,94.9,73.1,94.9z"/>
		<path class="st1" d="M91.3,94.9c4,0,7.3-3.3,7.3-7.3c0-4-3.3-7.3-7.3-7.3c-4,0-7.3,3.3-7.3,7.3C84,91.7,87.3,94.9,91.3,94.9z"/>
		<path class="st1" d="M109.5,94.9c4,0,7.3-3.3,7.3-7.3c0-4-3.3-7.3-7.3-7.3c-4,0-7.3,3.3-7.3,7.3C102.2,91.7,105.5,94.9,109.5,94.9
			z"/>
		<path class="st1" d="M82.2,80.4c4,0,7.3-3.3,7.3-7.3c0-4-3.3-7.3-7.3-7.3c-4,0-7.3,3.3-7.3,7.3C75,77.2,78.2,80.4,82.2,80.4z"/>
		<path class="st1" d="M100.4,80.4c4,0,7.3-3.3,7.3-7.3c0-4-3.3-7.3-7.3-7.3c-4,0-7.3,3.3-7.3,7.3C93.1,77.2,96.4,80.4,100.4,80.4z"
			/>
		<path class="st2" d="M7.6,72.6c1.5,15.4,14,27.5,29.2,29.3V124h7.3V87.3C59.4,85.6,71.4,73.4,72.8,58c4.4-1.4,7.6-5.5,7.6-10.3
			c0-6-4.9-10.9-10.9-10.9c-6,0-10.9,4.9-10.9,10.9c0,4.6,2.9,8.6,7,10.1C64.3,69.3,55.4,78.4,44.1,80V43.7
			c11.3-1.6,20.1-11.1,21.5-22.5c4.4-1.4,7.6-5.5,7.6-10.3c0-6-4.9-10.9-10.9-10.9c-6,0-10.9,4.9-10.9,10.9c0,4.6,2.9,8.6,7,10.1
			c-1.2,7.5-6.9,13.9-14.2,15.4V0h-7.3v51c-7.4-1.5-13-7.5-14.2-14.9c4.1-1.6,7-5.5,7-10.1c0-6-4.9-10.9-10.9-10.9
			c-6,0-10.9,4.9-10.9,10.9c0,4.8,3.2,8.9,7.6,10.3c1.4,11.4,10.2,20.4,21.5,22v36.3c-11.3-1.6-20.7-10.7-22-22.2
			c4.1-1.6,7-5.5,7-10.1c0-6-4.9-10.9-10.9-10.9C4.9,51.3,0,56.2,0,62.2C0,67.1,3.2,71.2,7.6,72.6z"/>
		<path class="st2" d="M80.4,124h21.8c12,0,21.8-9.8,21.8-21.8H58.6C58.6,114.2,68.4,124,80.4,124z"/>
	</g>
</g>
</svg>
