<?xml version="1.0" encoding="utf-8"?>
<!-- Generator: Adobe Illustrator 26.0.2, SVG Export Plug-In . SVG Version: 6.00 Build 0)  -->
<svg version="1.1" id="Layer_1" xmlns="http://www.w3.org/2000/svg" xmlns:xlink="http://www.w3.org/1999/xlink" x="0px" y="0px"
	 viewBox="0 0 124 124" style="enable-background:new 0 0 124 124;" xml:space="preserve">
<style type="text/css">
	.st0{fill:#828282;}
	.st1{fill:#00A300;}
</style>
<path class="st0" d="M15,123.6l17.9-18c0.7-0.7,0.2-2-0.8-2h-1.4c-1,0-1.5-1.1-0.9-1.9l9.5-12c0.6-0.8,0.1-1.9-0.9-1.9h-4.8
	c-1,0-1.5-1.1-0.9-1.9l12.1-16.2c0.6-0.8,0-1.9-0.9-1.9H24.6c-0.4,0-0.9,0.3-1,0.6l-9.4,19c-0.4,0.8,0.2,1.7,1,1.7h4.3
	c0.9,0,1.4,0.9,1,1.7l-6.4,13c-0.4,0.8,0.2,1.7,1,1.7h4.1c0.9,0,1.4,0.9,1.1,1.7l-7.2,15C12.5,123.5,14.1,124.6,15,123.6z"/>
<path class="st1" d="M44,123.2l39.7-39.9c1.6-1.6,0.5-4.4-1.8-4.4h-3.2c-2.2,0-3.4-2.5-2-4.2l21-26.5c1.3-1.7,0.1-4.2-2-4.2H85.1
	c-2.1,0-3.3-2.4-2.1-4.1l26.9-35.8c1.3-1.7,0.1-4.1-2.1-4.1H65.3c-1,0-1.9,0.6-2.3,1.4L42.2,43.5c-0.9,1.7,0.4,3.7,2.3,3.7h9.6
	c1.9,0,3.2,2,2.3,3.7L42.2,79.7c-0.9,1.7,0.4,3.7,2.3,3.7h9c1.9,0,3.2,2,2.3,3.7l-16,33.1C38.6,122.9,41.9,125.3,44,123.2z"/>
</svg>
